<?xml version="1.0" encoding="utf-8"?>
<!-- Generator: Adobe Illustrator 18.1.1, SVG Export Plug-In . SVG Version: 6.00 Build 0)  -->
<!DOCTYPE svg PUBLIC "-//W3C//DTD SVG 1.1//EN" "http://www.w3.org/Graphics/SVG/1.1/DTD/svg11.dtd">
<svg version="1.1" id="_x32_" xmlns="http://www.w3.org/2000/svg" xmlns:xlink="http://www.w3.org/1999/xlink" x="0px" y="0px"
	 viewBox="0 0 512 512" style="enable-background:new 0 0 512 512;" xml:space="preserve">
<style type="text/css">
	.st0{fill:#4B4B4B;}
</style>
<g>
	<path class="st0" d="M508.987,128.625l-10.618-20.242l-20.425-38.962l-10.618-20.243c-6.744-12.869-22.63-17.826-35.49-11.083
		l-27.151,14.236l6.007,11.465l54.055,103.098l6.006,11.465l27.16-14.245C510.773,157.38,515.731,141.485,508.987,128.625z"/>
	<path class="st0" d="M120.42,161.809c-51.868,15.658-82.427,34.57-96.061,77.25l-1.231,3.865
		c-3.217,10.08-4.884,20.47-5.177,30.851l-10.226,5.368c0,0-10.928,13.862-6.79,21.745l35.746,68.182
		c4.128,7.883,13.871,10.928,21.754,6.79l10.226-5.359c8.704,5.669,18.201,10.208,28.318,13.289l3.882,1.184
		c6.252,1.905,12.586,3.171,18.93,3.955c-3.053-11.647-4.684-23.86-4.684-36.438c0-79.273,64.482-143.755,143.746-143.755
		c34.324,0,65.867,12.113,90.612,32.255l102.597-67.444L398.006,70.442L120.42,161.809z"/>
	<path class="st0" d="M258.853,228.059c-68.72,0-124.434,55.714-124.434,124.433c0,68.72,55.714,124.425,124.434,124.425
		c68.729,0,124.433-55.705,124.433-124.425C383.286,283.773,327.582,228.059,258.853,228.059z M258.853,431.42
		c-43.592,0-78.927-35.326-78.927-78.928c0-43.601,35.335-78.927,78.927-78.927s78.928,35.326,78.928,78.927
		C337.781,396.094,302.445,431.42,258.853,431.42z"/>
	<path class="st0" d="M258.853,329.315c-12.796,0-23.177,10.381-23.177,23.177c0,12.788,10.381,23.169,23.177,23.169
		c12.796,0,23.177-10.381,23.177-23.169C282.03,339.696,271.649,329.315,258.853,329.315z"/>
</g>
</svg>
